0
SECTION
2
HEADER
9
$INSUNITS
70
4
9
$ACADVER
1
AC1014
9
$HANDSEED
5
FFFF
0
ENDSEC
0
SECTION
2
TABLES
0
TABLE
2
VPORT
5
8
100
AcDbSymbolTable
0
ENDTAB
0
TABLE
2
LTYPE
5
5
100
AcDbSymbolTable
0
LTYPE
5
14
100
AcDbSymbolTableRecord
100
AcDbLinetypeTableRecord
2
BYBLOCK
70
0
0
LTYPE
5
15
100
AcDbSymbolTableRecord
100
AcDbLinetypeTableRecord
2
BYLAYER
70
0
0
LTYPE
5
16
100
AcDbSymbolTableRecord
100
AcDbLinetypeTableRecord
2
DASHED
70
0
3
Dashed __ __ __ __ __ __ __ __ __ __ __ __ __ _
72
65
73
2
40
0.75
49
0.5
74
0
49
-0.25
74
0
0
ENDTAB
0
TABLE
2
LAYER
5
2
100
AcDbSymbolTable
70
2
0
LAYER
5
50
100
AcDbSymbolTableRecord
100
AcDbLayerTableRecord
2
0
70
0
62
7
6
CONTINUOUS
0
ENDTAB
0
TABLE
2
STYLE
5
3
100
AcDbSymbolTable
70
1
0
STYLE
5
11
100
AcDbSymbolTableRecord
100
AcDbTextStyleTableRecord
2
STANDARD
70
0
0
ENDTAB
0
TABLE
2
VIEW
5
6
100
AcDbSymbolTable
70
0
0
ENDTAB
0
TABLE
2
UCS
5
7
100
AcDbSymbolTable
70
0
0
ENDTAB
0
TABLE
2
APPID
5
9
100
AcDbSymbolTable
70
2
0
APPID
5
12
100
AcDbSymbolTableRecord
100
AcDbRegAppTableRecord
2
ACAD
70
0
0
ENDTAB
0
TABLE
2
DIMSTYLE
5
A
100
AcDbSymbolTable
70
1
0
ENDTAB
0
TABLE
2
BLOCK_RECORD
5
1
100
AcDbSymbolTable
70
1
0
BLOCK_RECORD
5
1F
100
AcDbSymbolTableRecord
100
AcDbBlockTableRecord
2
*MODEL_SPACE
0
BLOCK_RECORD
5
1B
100
AcDbSymbolTableRecord
100
AcDbBlockTableRecord
2
*PAPER_SPACE
0
ENDTAB
0
ENDSEC
0
SECTION
2
BLOCKS
0
BLOCK
5
20
100
AcDbEntity
100
AcDbBlockBegin
2
*MODEL_SPACE
0
ENDBLK
5
21
100
AcDbEntity
100
AcDbBlockEnd
0
BLOCK
5
1C
100
AcDbEntity
100
AcDbBlockBegin
2
*PAPER_SPACE
0
ENDBLK
5
1D
100
AcDbEntity
100
AcDbBlockEnd
0
ENDSEC
0
SECTION
2
ENTITIES
0
LINE
5
100
100
AcDbEntity
8
0
100
AcDbLine
10
-45.324999993199953
20
-29.522499999999987
30
0
11
-45.324999993199953
21
-18.89749999999999
31
0
6
DASHED
0
LINE
5
101
100
AcDbEntity
8
0
100
AcDbLine
10
-45.324999993199953
20
-18.89749999999999
30
0
11
-55.524999993199948
21
-18.89749999999999
31
0
6
DASHED
0
LINE
5
102
100
AcDbEntity
8
0
100
AcDbLine
10
-55.524999993199948
20
-18.89749999999999
30
0
11
-55.524999993199948
21
-29.522499999999994
31
0
6
DASHED
0
LINE
5
103
100
AcDbEntity
8
0
100
AcDbLine
10
-55.524999993199948
20
-29.522499999999994
30
0
11
-45.324999993199953
21
-29.522499999999987
31
0
6
DASHED
0
LINE
5
104
100
AcDbEntity
8
0
100
AcDbLine
10
-69.124999989799946
20
-18.89749999999999
30
0
11
-69.124999989799946
21
-29.522499999999994
31
0
6
DASHED
0
LINE
5
105
100
AcDbEntity
8
0
100
AcDbLine
10
-69.124999989799946
20
-29.522499999999994
30
0
11
-58.924999989799943
21
-29.522499999999987
31
0
6
DASHED
0
LINE
5
106
100
AcDbEntity
8
0
100
AcDbLine
10
-58.924999989799957
20
-18.89749999999999
30
0
11
-69.124999989799946
21
-18.89749999999999
31
0
6
DASHED
0
LINE
5
107
100
AcDbEntity
8
0
100
AcDbLine
10
-58.924999989799943
20
-29.522499999999987
30
0
11
-58.924999989799957
21
-18.89749999999999
31
0
6
DASHED
0
LINE
5
108
100
AcDbEntity
8
0
100
AcDbLine
10
-82.724999986399951
20
-18.89749999999999
30
0
11
-82.724999986399951
21
-29.522499999999994
31
0
6
DASHED
0
LINE
5
109
100
AcDbEntity
8
0
100
AcDbLine
10
-82.724999986399951
20
-29.522499999999994
30
0
11
-72.524999986399962
21
-29.522499999999987
31
0
6
DASHED
0
LINE
5
110
100
AcDbEntity
8
0
100
AcDbLine
10
-72.524999986399962
20
-18.89749999999999
30
0
11
-82.724999986399951
21
-18.89749999999999
31
0
6
DASHED
0
LINE
5
111
100
AcDbEntity
8
0
100
AcDbLine
10
-72.524999986399962
20
-29.522499999999987
30
0
11
-72.524999986399962
21
-18.89749999999999
31
0
6
DASHED
0
LINE
5
112
100
AcDbEntity
8
0
100
AcDbLine
10
-31.724999996599948
20
-29.522499999999987
30
0
11
-31.724999996599955
21
-18.89749999999999
31
0
6
DASHED
0
LINE
5
113
100
AcDbEntity
8
0
100
AcDbLine
10
-31.724999996599955
20
-18.89749999999999
30
0
11
-41.924999996599951
21
-18.89749999999999
31
0
6
DASHED
0
LINE
5
114
100
AcDbEntity
8
0
100
AcDbLine
10
-41.924999996599951
20
-29.522499999999994
30
0
11
-31.724999996599948
21
-29.522499999999987
31
0
6
DASHED
0
LINE
5
115
100
AcDbEntity
8
0
100
AcDbLine
10
-41.924999996599951
20
-18.89749999999999
30
0
11
-41.924999996599951
21
-29.522499999999994
31
0
6
DASHED
0
LINE
5
116
100
AcDbEntity
8
0
100
AcDbLine
10
-18.12499999999995
20
-29.522499999999987
30
0
11
-18.124999999999954
21
-18.89749999999999
31
0
6
DASHED
0
LINE
5
117
100
AcDbEntity
8
0
100
AcDbLine
10
-18.124999999999954
20
-18.89749999999999
30
0
11
-28.324999999999953
21
-18.89749999999999
31
0
6
DASHED
0
LINE
5
118
100
AcDbEntity
8
0
100
AcDbLine
10
-28.324999999999953
20
-29.522499999999994
30
0
11
-18.12499999999995
21
-29.522499999999987
31
0
6
DASHED
0
LINE
5
119
100
AcDbEntity
8
0
100
AcDbLine
10
-28.324999999999953
20
-18.89749999999999
30
0
11
-28.324999999999953
21
-29.522499999999994
31
0
6
DASHED
0
CIRCLE
5
120
100
AcDbEntity
8
0
100
AcDbCircle
10
-13.499999999999881
20
-200.00000000000003
30
0
40
4.596194077712533
210
0
220
0
230
1
6
DASHED
0
CIRCLE
5
121
100
AcDbEntity
8
0
100
AcDbCircle
10
-49.999999999999886
20
-200.00000000000003
30
0
40
6.0000000000000009
210
0
220
0
230
1
6
DASHED
0
LINE
5
122
100
AcDbEntity
8
0
100
AcDbLine
10
-69.199999999999861
20
-103.20080618085719
30
0
11
-69.19999999999996
21
-94.999999776482298
31
0
6
DASHED
0
LINE
5
123
100
AcDbEntity
8
0
100
AcDbLine
10
-69.199999999999704
20
-116.79919381914229
30
0
11
-69.199999999999861
21
-103.20080618085719
31
0
6
DASHED
0
LINE
5
124
100
AcDbEntity
8
0
100
AcDbLine
10
-69.199999999999591
20
-125.00000022351715
30
0
11
-69.19999999999969
21
-116.7991938191423
31
0
6
DASHED
0
LINE
5
125
100
AcDbEntity
8
0
100
AcDbLine
10
-80.799999999999613
20
-125.00000022351728
30
0
11
-69.199999999999591
21
-125.00000022351713
31
0
6
DASHED
0
LINE
5
126
100
AcDbEntity
8
0
100
AcDbLine
10
-80.799999999999713
20
-116.79919381914243
30
0
11
-80.799999999999613
21
-125.00000022351728
31
0
6
DASHED
0
LINE
5
127
100
AcDbEntity
8
0
100
AcDbLine
10
-80.799999999999898
20
-103.20080618085733
30
0
11
-80.799999999999713
21
-116.79919381914243
31
0
6
DASHED
0
LINE
5
128
100
AcDbEntity
8
0
100
AcDbLine
10
-80.799999999999983
20
-94.99999977648244
30
0
11
-80.799999999999869
21
-103.20080618085733
31
0
6
DASHED
0
LINE
5
129
100
AcDbEntity
8
0
100
AcDbLine
10
-80.799999999999983
20
-94.99999977648244
30
0
11
-69.19999999999996
21
-94.999999776482298
31
0
6
DASHED
0
LINE
5
130
100
AcDbEntity
8
0
100
AcDbLine
10
-69.199999999999861
20
-103.20080618085719
30
0
11
-80.799999999999983
21
-94.99999977648244
31
0
6
DASHED
0
LINE
5
131
100
AcDbEntity
8
0
100
AcDbLine
10
-80.799999999999898
20
-103.20080618085733
30
0
11
-69.19999999999996
21
-94.999999776482298
31
0
6
DASHED
0
LINE
5
132
100
AcDbEntity
8
0
100
AcDbLine
10
-69.19999999999969
20
-116.7991938191423
30
0
11
-80.799999999999613
21
-125.00000022351728
31
0
6
DASHED
0
LINE
5
133
100
AcDbEntity
8
0
100
AcDbLine
10
-80.799999999999713
20
-116.79919381914243
30
0
11
-69.199999999999591
21
-125.00000022351713
31
0
6
DASHED
0
LINE
5
134
100
AcDbEntity
8
0
100
AcDbLine
10
-13.499999999999881
20
-200.00000000000003
30
0
11
-49.999999999999886
21
-200.00000000000003
31
0
6
DASHED
0
LINE
5
135
100
AcDbEntity
8
0
100
AcDbLine
10
-13.499999999999881
20
-195.40380592228752
30
0
11
-13.499999999999881
21
-204.59619407771257
31
0
6
DASHED
0
CIRCLE
5
136
100
AcDbEntity
8
0
100
AcDbCircle
10
-25.000000000000004
20
-95
30
0
40
3.5000000000000009
210
0
220
0
230
1
6
DASHED
0
CIRCLE
5
137
100
AcDbEntity
8
0
100
AcDbCircle
10
-25.000000000000004
20
-125
30
0
40
3.5000000000000009
210
0
220
0
230
1
6
DASHED
0
LINE
5
138
100
AcDbEntity
8
0
100
AcDbLine
10
-25.000000000000004
20
-95
30
0
11
-25.000000000000004
21
-125
31
0
6
DASHED
0
LINE
5
139
100
AcDbEntity
8
0
100
AcDbLine
10
-21.513204874367911
20
-125.30374290422702
30
0
11
-28.486795125632099
21
-125.30374290422702
31
0
6
DASHED
0
LINE
5
140
100
AcDbEntity
8
0
100
AcDbLine
10
-21.500000000000004
20
-95
30
0
11
-28.500000000000007
21
-95
31
0
6
DASHED
0
LINE
5
141
100
AcDbEntity
8
0
100
AcDbLine
10
-50.00000074505806
20
-194.00000289082527
30
0
11
-50.00000074505806
21
-206.00000306963921
31
0
6
DASHED
0
LINE
5
142
100
AcDbEntity
8
0
100
AcDbLine
10
-9.8878679656456079
20
-74.597867965645179
30
0
11
-19.887867965645626
21
-74.597867965645136
31
0
6
DASHED
0
LINE
5
143
100
AcDbEntity
8
0
100
AcDbLine
10
-9.3878679656455724
20
-65.847867965645165
30
0
11
-9.3878679656456026
21
-74.097867965645179
31
0
6
DASHED
0
LINE
5
144
100
AcDbEntity
8
0
100
AcDbLine
10
-20.387867965645622
20
-74.09786796564515
30
0
11
-20.38786796564559
21
-65.597867965645122
31
0
6
DASHED
0
LINE
5
145
100
AcDbEntity
8
0
100
AcDbLine
10
1.9121320343544479
20
-65.347867965645207
30
0
11
-8.8878679656455724
21
-65.347867965645165
31
0
6
DASHED
0
LINE
5
146
100
AcDbEntity
8
0
100
AcDbLine
10
-8.8878679656455013
20
-44.847867965645143
30
0
11
1.9121320343545212
21
-44.847867965645179
31
0
6
DASHED
0
LINE
5
147
100
AcDbEntity
8
0
100
AcDbLine
10
-9.3878679656454693
20
-36.097867965645129
30
0
11
-9.3878679656454977
21
-44.347867965645136
31
0
6
DASHED
0
LINE
5
148
100
AcDbEntity
8
0
100
AcDbLine
10
-19.887867965645487
20
-35.597867965645094
30
0
11
-9.8878679656454693
21
-35.597867965645129
31
0
6
DASHED
0
LINE
5
149
100
AcDbEntity
8
0
100
AcDbLine
10
-82.197867965645742
20
-76.347867965645094
30
0
11
-22.887867965645682
21
-76.347867965645278
31
0
6
DASHED
0
LINE
5
150
100
AcDbEntity
8
0
100
AcDbLine
10
-82.347867965645605
20
-33.997867965644851
30
0
11
-82.347867965646145
21
-76.197867965644917
31
0
6
DASHED
0
LINE
5
151
100
AcDbEntity
8
0
100
AcDbLine
10
-85.724999986399965
20
-33.822499999999962
30
0
11
-15.324999999999775
21
-33.822500000000034
31
0
6
DASHED
0
LINE
5
152
100
AcDbEntity
8
0
100
AcDbLine
10
-9.1442110481459178
20
-224
30
0
11
-90.855788951825389
21
-224
31
0
6
DASHED
0
SPLINE
5
153
100
AcDbEntity
8
0
100
AcDbSpline
70
0
71
3
72
12
73
8
74
0
42
0.000000001
43
0.0000000001
44
0.0000000001
40
0.42100816549428655
40
0.42100816549428655
40
0.42100816549428655
40
0.42100816549428655
40
1.7514551689057585
40
1.7514551689057585
40
2.6802943446132326
40
2.6802943446132326
40
3.6170782038907277
40
3.6170782038907277
40
3.6170782038907277
40
3.6170782038907277
10
-90.855788951847231
20
-224.00000000001222
30
0
10
-93.017480302384143
20
-220.1445813754336
30
0
10
-94.591190049207626
20
-215.97815869336927
30
0
10
-96.144359975043088
20
-208.61126133332994
30
0
10
-96.456535092558539
20
-205.52259687640347
30
4.4408920985006262e-15
10
-96.407295616620488
20
-199.30641526550258
30
4.4408920985006262e-15
10
-96.040194471233704
20
-196.1968658446564
30
-4.4408920985006262e-15
10
-95.331734142828722
20
-193.15733847673948
30
0
6
DASHED
0
ELLIPSE
5
154
100
AcDbEntity
8
0
100
AcDbEllipse
10
-100
20
-180.10025125786763
30
0
11
0
21
-20.784609690826521
31
0.0
40
0.28867513459481298
41
0.89154666863328169
42
1.5707963267948966
6
DASHED
0
LINE
5
155
100
AcDbEntity
8
0
100
AcDbLine
10
-94
20
-42.604418650010999
30
0
11
-94.000000000000028
21
-14.472135875031551
31
0
6
DASHED
0
LINE
5
156
100
AcDbEntity
8
0
100
AcDbLine
10
-85.527864124968445
20
-6.0000000000000036
30
0
11
-14.472135875031551
21
-5.9999999999999964
31
0
6
DASHED
0
LINE
5
157
100
AcDbEntity
8
0
100
AcDbLine
10
-6.0000000000000009
20
-14.47213587503156
30
0
11
-6.0000000000000009
21
-44.62583782103718
31
0
6
DASHED
0
LINE
5
158
100
AcDbEntity
8
0
100
AcDbLine
10
-6.0000000000000009
20
-44.62583782103718
30
0
11
-8.9999999999999947
21
-46.379478859793615
31
0
6
DASHED
0
ELLIPSE
5
159
100
AcDbEntity
8
0
100
AcDbEllipse
10
-6.0000000000000009
20
-51.640401976062918
30
0
11
0
21
-6.0747907547280198
31
0.0
40
0.98768834059513744
41
3.6651914291880909
42
4.7123889803846897
6
DASHED
0
LINE
5
160
100
AcDbEntity
8
0
100
AcDbLine
10
-12.000000000000002
20
-51.640401976062918
30
0
11
-12.000000000000002
21
-158.35959802393708
31
0
6
DASHED
0
ELLIPSE
5
161
100
AcDbEntity
8
0
100
AcDbEllipse
10
-6.0000000000000009
20
-158.35959802393708
30
0
11
0
21
6.0747907547280207
31
0.0
40
0.98768834059513744
41
1.570796326794893
42
2.0479115132306158
6
DASHED
0
ELLIPSE
5
162
100
AcDbEntity
8
0
100
AcDbEllipse
10
5.3290705182007522e-15
20
-180.10025125786763
30
0
11
5.1021965732705161e-15
21
20.784609690826521
31
0.0
40
0.28867513459481298
41
1.5707963267948966
42
2.2500459849565129
6
DASHED
0
SPLINE
5
163
100
AcDbEntity
8
0
100
AcDbSpline
70
0
71
3
72
12
73
8
74
0
42
0.000000001
43
0.0000000001
44
0.0000000001
40
0
40
0
40
0
40
0
40
1.6311627916420075
40
1.6311627916420075
40
2.6309340550611551
40
2.6309340550611551
40
3.1935707322496212
40
3.1935707322496212
40
3.1935707322496212
40
3.1935707322496212
10
-4.6682658571712663
20
-193.15733847673951
30
0
10
-3.4340310726550478
20
-198.45261085200181
30
0
10
-3.2401090004745421
20
-203.93902963762804
30
-4.4408920985006262e-15
10
-4.5788688147287333
20
-212.61174857031597
30
-4.4408920985006262e-15
10
-5.467838568061083
20
-215.83791448408999
30
4.4408920985006262e-15
10
-7.4154304392218791
20
-220.67218227885448
30
4.4408920985006262e-15
10
-8.2275536540639003
20
-222.36512256322894
30
4.4408920985006262e-15
10
-9.1442110481459249
20
-224.00000000000003
30
0
6
DASHED
0
ARC
5
164
100
AcDbEntity
8
0
100
AcDbCircle
10
-90
20
-167.00000248849392
30
0
40
5.9999999403953659
210
0
220
0
230
1
100
AcDbArc
50
-131.81031540487081
51
59.277135745750485
6
DASHED
0
ELLIPSE
5
165
100
AcDbEntity
8
0
100
AcDbEllipse
10
-94
20
-158.042829143288
30
0
11
0
21
-8.0997210063040281
31
0.0
40
0.98768834059513766
41
1.08256636411365
42
1.5707963267948966
6
DASHED
0
LINE
5
166
100
AcDbEntity
8
0
100
AcDbLine
10
-86
20
-158.042829143288
30
0
11
-86
21
-51.957170856711997
31
0
6
DASHED
0
ELLIPSE
5
167
100
AcDbEntity
8
0
100
AcDbEllipse
10
-94
20
-51.957170856711997
30
0
11
0
21
8.0997210063040228
31
0.0
40
0.98768834059513744
41
4.7123889803846897
42
5.7595865315812871
6
DASHED
0
LINE
5
168
100
AcDbEntity
8
0
100
AcDbLine
10
-90
20
-44.942606701686259
30
0
11
-94
21
-42.604418650010999
31
0
6
DASHED
0
ARC
5
169
100
AcDbEntity
8
0
100
AcDbCircle
10
-90
20
-10.000000000000007
30
0
40
5.9999999403953606
210
0
220
0
230
1
100
AcDbArc
50
-131.81031540487115
51
41.810315404870884
6
DASHED
0
ARC
5
170
100
AcDbEntity
8
0
100
AcDbCircle
10
-10
20
-10
30
0
40
5.9999999403953534
210
0
220
0
230
1
100
AcDbArc
50
138.18968459512911
51
311.81031540487083
6
DASHED
0
ARC
5
171
100
AcDbEntity
8
0
100
AcDbCircle
10
-10
20
-167.00000248849392
30
0
40
5.9999999403953685
210
0
220
0
230
1
100
AcDbArc
50
102.80635833990571
51
311.81031540487072
6
DASHED
0
LINE
5
172
100
AcDbEntity
8
0
100
AcDbLine
10
-6.0000000000000044
20
-171.47213836352549
30
0
11
-6.0000000000000009
21
-180.10025125786763
31
0
6
DASHED
0
LINE
5
173
100
AcDbEntity
8
0
100
AcDbLine
10
-94
20
-180.10025125786763
30
0
11
-94
21
-171.47213836352549
31
0
6
DASHED
0
LINE
5
174
100
AcDbEntity
8
0
100
AcDbLine
10
-72.524999986399962
20
-18.89749999999999
30
0
11
-82.724999986399951
21
-29.522499999999994
31
0
6
DASHED
0
LINE
5
175
100
AcDbEntity
8
0
100
AcDbLine
10
-82.724999986399951
20
-18.89749999999999
30
0
11
-72.524999986399962
21
-29.522499999999987
31
0
6
DASHED
0
LINE
5
176
100
AcDbEntity
8
0
100
AcDbLine
10
-69.124999989799946
20
-18.89749999999999
30
0
11
-58.924999989799943
21
-29.522499999999987
31
0
6
DASHED
0
LINE
5
177
100
AcDbEntity
8
0
100
AcDbLine
10
-58.924999989799957
20
-18.89749999999999
30
0
11
-69.124999989799946
21
-29.522499999999994
31
0
6
DASHED
0
LINE
5
178
100
AcDbEntity
8
0
100
AcDbLine
10
-45.324999993199953
20
-18.89749999999999
30
0
11
-55.524999993199948
21
-29.522499999999994
31
0
6
DASHED
0
LINE
5
179
100
AcDbEntity
8
0
100
AcDbLine
10
-55.524999993199948
20
-18.89749999999999
30
0
11
-45.324999993199953
21
-29.522499999999987
31
0
6
DASHED
0
LINE
5
180
100
AcDbEntity
8
0
100
AcDbLine
10
-31.724999996599955
20
-18.89749999999999
30
0
11
-41.924999996599951
21
-29.522499999999994
31
0
6
DASHED
0
LINE
5
181
100
AcDbEntity
8
0
100
AcDbLine
10
-41.924999996599951
20
-18.89749999999999
30
0
11
-31.724999996599948
21
-29.522499999999987
31
0
6
DASHED
0
LINE
5
182
100
AcDbEntity
8
0
100
AcDbLine
10
-28.324999999999953
20
-29.522499999999994
30
0
11
-18.124999999999954
21
-18.89749999999999
31
0
6
DASHED
0
LINE
5
183
100
AcDbEntity
8
0
100
AcDbLine
10
-28.324999999999953
20
-18.89749999999999
30
0
11
-18.12499999999995
21
-29.522499999999987
31
0
6
DASHED
0
ENDSEC
0
SECTION
2
OBJECTS
0
DICTIONARY
5
C
100
AcDbDictionary
3
ACAD_GROUP
350
D
3
ACAD_MLINESTYLE
350
17
0
DICTIONARY
5
D
100
AcDbDictionary
0
DICTIONARY
5
1A
330
C
100
AcDbDictionary
0
DICTIONARY
5
17
100
AcDbDictionary
0
ENDSEC
0
EOF
